<svg data-v-423bf9ae="" xmlns="http://www.w3.org/2000/svg" viewBox="0 0 275.8262163004982 60" class="font"><!----><!----><!----><g data-v-423bf9ae="" id="c24ce381-2231-4084-a092-37c963a16b77" fill="#000000" transform="matrix(3.949967192723647,0,0,3.949967192723647,-6.043447824330315,-27.53127286487601)"><path d="M8.12 14.99L8.12 14.99Q8.61 15.20 8.83 15.41L8.83 15.41L8.83 15.41Q9.04 15.61 9.04 15.85L9.04 15.85L9.04 15.85Q9.04 16.18 8.72 16.60L8.72 16.60L8.72 16.60Q8.40 17.02 7.95 17.43L7.95 17.43L2.46 15.04L2.46 15.04Q1.97 14.83 1.75 14.62L1.75 14.62L1.75 14.62Q1.53 14.41 1.53 14.17L1.53 14.17L1.53 14.17Q1.53 13.86 1.86 13.41L1.86 13.41L1.86 13.41Q2.20 12.95 2.62 12.59L2.62 12.59L7.97 10.19L7.97 10.19Q8.60 9.91 8.88 9.91L8.88 9.91L8.88 9.91Q9.32 9.91 9.52 10.49L9.52 10.49L9.52 10.49Q9.72 11.07 9.73 11.89L9.73 11.89L5.43 13.82L8.12 14.99ZM14.62 19.18L14.62 19.18Q12.78 19.18 11.96 18.71L11.96 18.71L11.96 18.71Q11.13 18.24 11.13 17.44L11.13 17.44L11.13 17.44Q11.13 17.08 11.34 16.69L11.34 16.69L11.34 16.69Q11.55 16.30 11.93 16.02L11.93 16.02L11.93 16.02Q12.74 17.47 14.46 17.47L14.46 17.47L14.46 17.47Q14.92 17.47 15.41 17.26L15.41 17.26L15.41 17.26Q15.90 17.04 15.90 16.63L15.90 16.63L15.90 16.63Q15.90 16.38 15.58 16.23L15.58 16.23L15.58 16.23Q15.26 16.07 14.50 15.83L14.50 15.83L14.50 15.83Q13.62 15.57 13.03 15.31L13.03 15.31L13.03 15.31Q12.45 15.05 12.01 14.57L12.01 14.57L12.01 14.57Q11.58 14.08 11.58 13.33L11.58 13.33L11.58 13.33Q11.58 11.86 12.85 11.14L12.85 11.14L12.85 11.14Q14.13 10.43 16.06 10.43L16.06 10.43L16.06 10.43Q17.53 10.43 18.38 10.89L18.38 10.89L18.38 10.89Q19.24 11.34 19.24 12.08L19.24 12.08L19.24 12.08Q19.24 12.71 18.79 13.08L18.79 13.08L18.79 13.08Q18.34 13.44 17.71 13.44L17.71 13.44L17.71 13.44Q17.12 13.44 16.62 13.08L16.62 13.08L16.62 13.08Q16.11 12.71 15.82 12.01L15.82 12.01L15.82 12.01Q15.23 12.07 14.81 12.33L14.81 12.33L14.81 12.33Q14.39 12.60 14.39 12.99L14.39 12.99L14.39 12.99Q14.39 13.31 14.74 13.50L14.74 13.50L14.74 13.50Q15.09 13.68 15.89 13.92L15.89 13.92L15.89 13.92Q16.76 14.18 17.32 14.43L17.32 14.43L17.32 14.43Q17.89 14.69 18.30 15.18L18.30 15.18L18.30 15.18Q18.72 15.67 18.72 16.45L18.72 16.45L18.72 16.45Q18.72 17.39 18.07 18.00L18.07 18.00L18.07 18.00Q17.43 18.62 16.48 18.90L16.48 18.90L16.48 18.90Q15.54 19.18 14.62 19.18L14.62 19.18ZM23.11 9.66L23.11 9.66Q22.46 9.66 22.04 9.35L22.04 9.35L22.04 9.35Q21.63 9.03 21.63 8.50L21.63 8.50L21.63 8.50Q21.63 8.02 21.92 7.67L21.92 7.67L21.92 7.67Q22.22 7.32 22.66 7.15L22.66 7.15L22.66 7.15Q23.10 6.97 23.52 6.97L23.52 6.97L23.52 6.97Q24.18 6.97 24.59 7.29L24.59 7.29L24.59 7.29Q25.00 7.60 25.00 8.13L25.00 8.13L25.00 8.13Q25.00 8.79 24.44 9.23L24.44 9.23L24.44 9.23Q23.88 9.66 23.11 9.66L23.11 9.66ZM22.27 19.18L22.27 19.18Q21.41 19.18 21.01 18.75L21.01 18.75L21.01 18.75Q20.62 18.31 20.62 17.44L20.62 17.44L20.62 17.44Q20.62 16.53 21.52 12.66L21.52 12.66L20.73 11.48L20.73 11.48Q21.41 11.00 22.13 10.72L22.13 10.72L22.13 10.72Q22.85 10.43 23.49 10.43L23.49 10.43L23.49 10.43Q24.07 10.43 24.30 10.68L24.30 10.68L24.30 10.68Q24.54 10.92 24.54 11.47L24.54 11.47L24.54 11.47Q24.54 11.65 24.44 12.13L24.44 12.13L24.44 12.13Q24.33 12.61 24.21 13.19L24.21 13.19L24.21 13.19Q23.88 14.52 23.70 15.51L23.70 15.51L23.70 15.51Q23.51 16.49 23.51 17.22L23.51 17.22L23.51 17.22Q23.51 18.12 23.94 18.49L23.94 18.49L23.94 18.49Q23.16 19.18 22.27 19.18L22.27 19.18ZM27.55 19.18L27.55 19.18Q26.70 19.18 26.31 18.75L26.31 18.75L26.31 18.75Q25.91 18.31 25.91 17.44L25.91 17.44L25.91 17.44Q25.91 16.88 26.20 15.27L26.20 15.27L26.20 15.27Q26.49 13.66 26.80 12.33L26.80 12.33L26.07 11.21L26.07 11.21Q27.45 10.43 28.66 10.43L28.66 10.43L28.66 10.43Q29.23 10.43 29.52 10.71L29.52 10.71L29.52 10.71Q29.81 10.99 29.81 11.49L29.81 11.49L29.81 11.49Q29.81 11.84 29.71 12.23L29.71 12.23L29.71 12.23Q29.62 12.61 29.48 12.92L29.48 12.92L29.62 12.99L29.62 12.99Q31.12 10.43 33.43 10.43L33.43 10.43L33.43 10.43Q34.29 10.43 34.71 10.84L34.71 10.84L34.71 10.84Q35.13 11.26 35.13 12.12L35.13 12.12L35.13 12.12Q35.13 12.60 35.03 13.12L35.03 13.12L35.03 13.12Q34.93 13.64 34.73 14.50L34.73 14.50L34.73 14.50Q34.51 15.44 34.41 16.04L34.41 16.04L34.41 16.04Q34.30 16.63 34.30 17.22L34.30 17.22L34.30 17.22Q34.30 18.09 34.59 18.49L34.59 18.49L34.59 18.49Q33.85 19.18 33.05 19.18L33.05 19.18L33.05 19.18Q32.20 19.18 31.81 18.75L31.81 18.75L31.81 18.75Q31.42 18.31 31.42 17.44L31.42 17.44L31.42 17.44Q31.42 16.87 31.54 16.27L31.54 16.27L31.54 16.27Q31.67 15.67 31.91 14.90L31.91 14.90L31.91 14.90Q32.09 14.25 32.17 13.88L32.17 13.88L32.17 13.88Q32.26 13.51 32.26 13.22L32.26 13.22L32.26 13.22Q32.26 12.63 31.78 12.63L31.78 12.63L31.78 12.63Q31.25 12.63 30.53 13.24L30.53 13.24L30.53 13.24Q29.82 13.85 29.31 14.90L29.31 14.90L29.31 14.90Q28.80 15.96 28.80 17.22L28.80 17.22L28.80 17.22Q28.80 18.09 29.09 18.49L29.09 18.49L29.09 18.49Q28.35 19.18 27.55 19.18L27.55 19.18ZM44.21 10.77L44.21 10.77Q44.70 10.77 44.95 11.02L44.95 11.02L44.95 11.02Q45.21 11.27 45.21 11.76L45.21 11.76L45.21 11.76Q45.21 14.42 44.49 16.78L44.49 16.78L44.49 16.78Q43.78 19.14 42.18 20.65L42.18 20.65L42.18 20.65Q40.59 22.16 38.11 22.16L38.11 22.16L38.11 22.16Q36.78 22.16 36.06 21.75L36.06 21.75L36.06 21.75Q35.35 21.34 35.35 20.57L35.35 20.57L35.35 20.57Q35.35 20.10 35.59 19.68L35.59 19.68L35.59 19.68Q35.84 19.25 36.22 19.04L36.22 19.04L36.22 19.04Q36.54 19.56 37.08 19.82L37.08 19.82L37.08 19.82Q37.62 20.08 38.28 20.08L38.28 20.08L38.28 20.08Q39.41 20.08 40.37 19.29L40.37 19.29L40.37 19.29Q41.33 18.51 41.85 16.69L41.85 16.69L41.48 16.69L41.48 16.69Q41.06 17.63 40.28 18.16L40.28 18.16L40.28 18.16Q39.51 18.69 38.56 18.69L38.56 18.69L38.56 18.69Q37.76 18.69 37.15 18.30L37.15 18.30L37.15 18.30Q36.54 17.91 36.20 17.19L36.20 17.19L36.20 17.19Q35.87 16.48 35.87 15.54L35.87 15.54L35.87 15.54Q35.87 14.04 36.58 12.88L36.58 12.88L36.58 12.88Q37.30 11.72 38.58 11.07L38.58 11.07L38.58 11.07Q39.86 10.43 41.52 10.43L41.52 10.43L41.52 10.43Q42.11 10.43 42.63 10.54L42.63 10.54L42.63 10.54Q42.74 10.86 42.78 11.27L42.78 11.27L42.78 11.27Q43.37 10.77 44.21 10.77L44.21 10.77ZM39.80 16.84L39.80 16.84Q40.35 16.84 40.94 16.37L40.94 16.37L40.94 16.37Q41.52 15.90 41.94 14.76L41.94 14.76L41.94 14.76Q42.35 13.61 42.35 11.72L42.35 11.72L42.35 11.72Q41.33 11.82 40.47 12.31L40.47 12.31L40.47 12.31Q39.62 12.81 39.13 13.59L39.13 13.59L39.13 13.59Q38.64 14.36 38.64 15.27L38.64 15.27L38.64 15.27Q38.64 16.02 38.95 16.43L38.95 16.43L38.95 16.43Q39.26 16.84 39.80 16.84L39.80 16.84ZM42.35 12.95L42.35 12.95Q42.36 12.75 42.36 12.35L42.36 12.35L42.36 12.35Q42.36 11.93 42.35 11.72L42.35 11.72L42.35 12.95ZM48.06 19.18L48.06 19.18Q47.21 19.18 46.82 18.75L46.82 18.75L46.82 18.75Q46.42 18.31 46.42 17.44L46.42 17.44L46.42 17.44Q46.42 16.87 46.66 15.50L46.66 15.50L46.66 15.50Q46.90 14.13 47.36 11.76L47.36 11.76L47.67 10.12L46.89 9.00L46.89 9.00Q47.52 8.54 48.20 8.26L48.20 8.26L48.20 8.26Q48.89 7.98 49.50 7.98L49.50 7.98L49.50 7.98Q50.16 7.98 50.43 8.21L50.43 8.21L50.43 8.21Q50.69 8.44 50.69 8.97L50.69 8.97L50.69 8.97Q50.69 9.31 50.59 9.85L50.59 9.85L50.59 9.85Q50.48 10.39 50.26 11.31L50.26 11.31L50.26 11.31Q49.97 12.57 49.83 13.22L49.83 13.22L49.97 13.29L49.97 13.29Q50.79 11.86 51.82 11.14L51.82 11.14L51.82 11.14Q52.85 10.43 53.94 10.43L53.94 10.43L53.94 10.43Q54.80 10.43 55.22 10.84L55.22 10.84L55.22 10.84Q55.64 11.26 55.64 12.12L55.64 12.12L55.64 12.12Q55.64 12.60 55.54 13.12L55.54 13.12L55.54 13.12Q55.44 13.64 55.24 14.50L55.24 14.50L55.24 14.50Q55.02 15.44 54.92 16.04L54.92 16.04L54.92 16.04Q54.81 16.63 54.81 17.22L54.81 17.22L54.81 17.22Q54.81 18.09 55.10 18.49L55.10 18.49L55.10 18.49Q54.36 19.18 53.56 19.18L53.56 19.18L53.56 19.18Q52.71 19.18 52.32 18.75L52.32 18.75L52.32 18.75Q51.93 18.31 51.93 17.44L51.93 17.44L51.93 17.44Q51.93 16.87 52.05 16.27L52.05 16.27L52.05 16.27Q52.18 15.67 52.42 14.90L52.42 14.90L52.42 14.90Q52.60 14.25 52.68 13.88L52.68 13.88L52.68 13.88Q52.77 13.51 52.77 13.22L52.77 13.22L52.77 13.22Q52.77 12.63 52.29 12.63L52.29 12.63L52.29 12.63Q51.76 12.63 51.04 13.24L51.04 13.24L51.04 13.24Q50.33 13.85 49.82 14.90L49.82 14.90L49.82 14.90Q49.31 15.96 49.31 17.22L49.31 17.22L49.31 17.22Q49.31 18.09 49.60 18.49L49.60 18.49L49.60 18.49Q48.86 19.18 48.06 19.18L48.06 19.18ZM56.27 19.57L56.27 19.57Q57.64 15.78 59.26 8.44L59.26 8.44L59.26 8.44Q59.42 7.77 59.72 7.45L59.72 7.45L59.72 7.45Q60.02 7.13 60.49 7.13L60.49 7.13L60.49 7.13Q60.86 7.13 61.25 7.24L61.25 7.24L61.25 7.24Q61.64 7.35 61.84 7.50L61.84 7.50L61.84 7.50Q60.47 11.30 58.84 18.63L58.84 18.63L58.84 18.63Q58.69 19.31 58.39 19.63L58.39 19.63L58.39 19.63Q58.09 19.95 57.61 19.95L57.61 19.95L57.61 19.95Q57.26 19.95 56.87 19.84L56.87 19.84L56.87 19.84Q56.48 19.73 56.27 19.57L56.27 19.57ZM70.42 12.31L70.42 12.31Q70.91 12.52 71.13 12.73L71.13 12.73L71.13 12.73Q71.36 12.94 71.36 13.17L71.36 13.17L71.36 13.17Q71.36 13.48 71.02 13.94L71.02 13.94L71.02 13.94Q70.69 14.39 70.27 14.76L70.27 14.76L64.92 17.15L64.92 17.15Q64.29 17.43 64.01 17.43L64.01 17.43L64.01 17.43Q63.56 17.43 63.36 16.85L63.36 16.85L63.36 16.85Q63.17 16.27 63.15 15.46L63.15 15.46L67.45 13.52L64.76 12.35L64.76 12.35Q64.27 12.14 64.06 11.94L64.06 11.94L64.06 11.94Q63.84 11.73 63.84 11.49L63.84 11.49L63.84 11.49Q63.84 11.16 64.16 10.74L64.16 10.74L64.16 10.74Q64.48 10.32 64.93 9.91L64.93 9.91L70.42 12.31Z"></path></g><!----><!----></svg>